{
  "accessors": [
    {
      "bufferView": 2,
      "componentType": 5126,
      "count": 11641,
      "max": [
        0.9632300138473511,
        0.8890600204467773,
        2.5139200687408447
      ],
      "min": [
        -0.9693599939346313,
        -0.8547199964523315,
        -0.2121800035238266
      ],
      "type": "VEC3"
    },
    {
      "bufferView": 2,
      "byteOffset": 139692,
      "componentType": 5126,
      "count": 11641,
      "max": [
        0.9995405077934265,
        1.0,
        0.9999998211860657
      ],
      "min": [
        -0.999857485294342,
        -1.0,
        -0.9992833733558655
      ],
      "type": "VEC3"
    },
    {
      "bufferView": 1,
      "componentType": 5126,
      "count": 11641,
      "max": [
        0.9960100054740906,
        0.9960100054740906
      ],
      "min": [
        0.0039900001138448715,
        0.0039900001138448715
      ],
      "type": "VEC2"
    },
    {
      "bufferView": 0,
      "componentType": 5125,
      "count": 32538,
      "type": "SCALAR"
    },
    {
      "bufferView": 2,
      "byteOffset": 279384,
      "componentType": 5126,
      "count": 8,
      "max": [
        2.6583199501037598,
        2.6583199501037598,
        0.0
      ],
      "min": [
        -2.6583199501037598,
        -2.6583199501037598,
        0.0
      ],
      "type": "VEC3"
    },
    {
      "bufferView": 2,
      "byteOffset": 279480,
      "componentType": 5126,
      "count": 8,
      "max": [
        0.0,
        0.0,
        1.0
      ],
      "min": [
        0.0,
        0.0,
        1.0
      ],
      "type": "VEC3"
    },
    {
      "bufferView": 1,
      "byteOffset": 93128,
      "componentType": 5126,
      "count": 8,
      "max": [
        0.9854400157928467,
        0.9854400157928467
      ],
      "min": [
        0.014560000039637089,
        0.014560000039637089
      ],
      "type": "VEC2"
    },
    {
      "bufferView": 0,
      "byteOffset": 130152,
      "componentType": 5125,
      "count": 30,
      "type": "SCALAR"
    },
    {
      "bufferView": 2,
      "byteOffset": 279576,
      "componentType": 5126,
      "count": 1984,
      "max": [
        1.0,
        1.0,
        1.0
      ],
      "min": [
        -1.0,
        -1.0,
        -1.0
      ],
      "type": "VEC3"
    },
    {
      "bufferView": 2,
      "byteOffset": 303384,
      "componentType": 5126,
      "count": 1984,
      "max": [
        0.9904383420944214,
        0.9904383420944214,
        0.9951387047767639
      ],
      "min": [
        -0.9904383420944214,
        -0.9904383420944214,
        -0.9951387047767639
      ],
      "type": "VEC3"
    },
    {
      "bufferView": 0,
      "byteOffset": 130272,
      "componentType": 5125,
      "count": 2880,
      "type": "SCALAR"
    }
  ],
  "asset": {
    "extras": {
      "author": "pinguinoconpulgares (https://sketchfab.com/pinguinoconpulgares)",
      "license": "CC-BY-4.0 (http://creativecommons.org/licenses/by/4.0/)",
      "source": "https://sketchfab.com/3d-models/free-toon-house-e19f373ec36148e88f8b32a29000433e",
      "title": "Free Toon House"
    },
    "generator": "Sketchfab-12.66.0",
    "version": "2.0"
  },
  "bufferViews": [
    {
      "buffer": 0,
      "byteLength": 141792,
      "name": "floatBufferViews",
      "target": 34963
    },
    {
      "buffer": 0,
      "byteLength": 93192,
      "byteOffset": 141792,
      "byteStride": 8,
      "name": "floatBufferViews",
      "target": 34962
    },
    {
      "buffer": 0,
      "byteLength": 327192,
      "byteOffset": 234984,
      "byteStride": 12,
      "name": "floatBufferViews",
      "target": 34962
    }
  ],
  "buffers": [
    {
      "byteLength": 562176,
      "uri": "scene.bin"
    }
  ],
  "extensionsUsed": [
    "KHR_materials_unlit"
  ],
  "images": [
    {
      "uri": "textures/Material.001_baseColor.png"
    },
    {
      "uri": "textures/Material_baseColor.png"
    }
  ],
  "materials": [
    {
      "doubleSided": true,
      "extensions": {
        "KHR_materials_unlit": {}
      },
      "name": "SPHERE",
      "pbrMetallicRoughness": {
        "baseColorFactor": [
          0.8879232406616211,
          0.8879232406616211,
          0.8879232406616211,
          1.0
        ],
        "metallicFactor": 0.0
      }
    },
    {
      "doubleSided": true,
      "extensions": {
        "KHR_materials_unlit": {}
      },
      "name": "Material.001",
      "pbrMetallicRoughness": {
        "baseColorTexture": {
          "index": 0
        },
        "metallicFactor": 0.0
      }
    },
    {
      "doubleSided": true,
      "extensions": {
        "KHR_materials_unlit": {}
      },
      "name": "Material",
      "pbrMetallicRoughness": {
        "baseColorTexture": {
          "index": 1
        },
        "metallicFactor": 0.0
      }
    }
  ],
  "meshes": [
    {
      "name": "Cube_0",
      "primitives": [
        {
          "attributes": {
            "NORMAL": 1,
            "POSITION": 0,
            "TEXCOORD_0": 2
          },
          "indices": 3,
          "material": 2,
          "mode": 4
        }
      ]
    },
    {
      "name": "Plane_0",
      "primitives": [
        {
          "attributes": {
            "NORMAL": 5,
            "POSITION": 4,
            "TEXCOORD_0": 6
          },
          "indices": 7,
          "material": 1,
          "mode": 4
        }
      ]
    },
    {
      "name": "Sphere_0",
      "primitives": [
        {
          "attributes": {
            "NORMAL": 9,
            "POSITION": 8
          },
          "indices": 10,
          "material": 0,
          "mode": 4
        }
      ]
    }
  ],
  "nodes": [
    {
      "children": [
        1
      ],
      "matrix": [
        3.846153736114502,
        0.0,
        0.0,
        0.0,
        0.0,
        8.540176868164777e-16,
        -3.846153736114502,
        0.0,
        0.0,
        3.846153736114502,
        8.540176868164777e-16,
        0.0,
        0.0,
        0.0,
        0.0,
        1.0
      ],
      "name": "Sketchfab_model"
    },
    {
      "children": [
        2,
        4,
        6
      ],
      "name": "Root"
    },
    {
      "children": [
        3
      ],
      "matrix": [
        0.99452,
        0.0,
        -0.10453000000000001,
        0.0,
        0.0,
        1.0,
        0.0,
        0.0,
        0.10453000000000001,
        0.0,
        0.99452,
        0.0,
        0.0,
        0.0,
        0.0,
        1.0
      ],
      "name": "Cube"
    },
    {
      "mesh": 0,
      "name": "Cube_0"
    },
    {
      "children": [
        5
      ],
      "matrix": [
        2.79841,
        0.0,
        0.0,
        0.0,
        0.0,
        2.79841,
        0.0,
        0.0,
        0.0,
        0.0,
        2.79841,
        0.0,
        -0.0009400000000000003,
        0.15743000000000004,
        -0.11603000000000002,
        1.0
      ],
      "name": "Plane"
    },
    {
      "mesh": 1,
      "name": "Plane_0"
    },
    {
      "children": [
        7
      ],
      "matrix": [
        6.3776600000000006,
        0.0,
        0.0,
        0.0,
        0.0,
        6.3776600000000006,
        0.0,
        0.0,
        0.0,
        0.0,
        6.3776600000000006,
        0.0,
        -0.38879,
        -0.22762000000000002,
        1.71949,
        1.0
      ],
      "name": "Sphere"
    },
    {
      "mesh": 2,
      "name": "Sphere_0"
    }
  ],
  "samplers": [
    {
      "magFilter": 9729,
      "minFilter": 9987,
      "wrapS": 10497,
      "wrapT": 10497
    }
  ],
  "scene": 0,
  "scenes": [
    {
      "name": "Sketchfab_Scene",
      "nodes": [
        0
      ]
    }
  ],
  "textures": [
    {
      "sampler": 0,
      "source": 0
    },
    {
      "sampler": 0,
      "source": 1
    }
  ]
}
